<?xml version="1.0" standalone="no"?><!DOCTYPE svg PUBLIC "-//W3C//DTD SVG 1.1//EN" "http://www.w3.org/Graphics/SVG/1.1/DTD/svg11.dtd">
<svg t="1575615418855" class="icon" viewBox="0 0 1024 1024" version="1.1" xmlns="http://www.w3.org/2000/svg" p-id="9678"
     width="200" height="200"><defs><style type="text/css"></style></defs><path d="M512 512m-416 0a416 416 0 1 0 832 0 416 416 0 1 0-832 0Z" fill="#FFFFFF" p-id="9679"></path><path d="M512 512m-416 0a416 416 0 1 0 832 0 416 416 0 1 0-832 0Z" fill="#FFFFFF" p-id="9680"></path><path d="M560 512l112 64v32c0 26.516-16 48-32 48H384c-16 0-32-21.484-32-48v-32l112-64" fill="#FFFFFF" p-id="9681"></path><path d="M592 424c0 56-31.408 104-80 104s-80-48-80-104 16-88 80-88 80 32 80 88z" fill="#FFC469" p-id="9682"></path><path d="M512 0v96c229.752 0 416 186.252 416 416 0 114.876-46.564 218.876-121.844 294.156l67.876 67.876C966.688 781.376 1024 653.376 1024 512 1024 229.236 794.78 0 512 0z" fill="#F59D15" p-id="9683"></path><path d="M512 96V0C229.22 0 0 229.236 0 512h96C96 282.252 282.252 96 512 96z" fill="#76E1E5" p-id="9684"></path><path d="M512 928c-229.752 0-416-186.252-416-416H0c0 282.764 229.22 512 512 512 141.968 0 270.436-57.812 363.172-151.156l-67.36-68.408C732.408 880.704 627.736 928 512 928z" fill="#B7F1F4" p-id="9685"></path></svg>