<svg xmlns="http://www.w3.org/2000/svg" xmlns:xlink="http://www.w3.org/1999/xlink" viewBox="0 0 129.83 75.85"><defs><style>.cls-1{fill:url(#未命名的渐变_8);}.cls-2{fill:#84b94f;}.cls-3{fill:url(#未命名的渐变_8-2);}.cls-4{font-size:60px;fill:#6bb82d;font-family:Mistral;}</style><linearGradient id="未命名的渐变_8" x1="1783.98" y1="141.6" x2="1784.98" y2="141.6" gradientTransform="matrix(127.56, 0, 0, -127.56, -227559.97, 18125.39)" gradientUnits="userSpaceOnUse"><stop offset="0" stop-color="#fff"/><stop offset="0.18" stop-color="#84b94f"/><stop offset="1" stop-color="#6bb82d"/></linearGradient><linearGradient id="未命名的渐变_8-2" x1="1783.98" y1="141.6" x2="1784.98" y2="141.6" gradientTransform="matrix(83.53, 0, 0, -83.53, -148993.72, 11889.66)" xlink:href="#未命名的渐变_8"/></defs><title>资源 7</title><g id="图层_2" data-name="图层 2"><g id="图层_1-2" data-name="图层 1"><path class="cls-1" d="M129.82,58,9.17,61.49c-3.06.45-6,2.2-6.67,4.13l-.08.2c-.71,1.93,1,3.4,3.84,3.49Z"/><path class="cls-2" d="M129.82,58v-.12L9.16,61.36h0c-3.1.45-6,2.2-6.78,4.2l-.07.21h0a2.49,2.49,0,0,0-.18.9,2.34,2.34,0,0,0,1.15,1.95,5.78,5.78,0,0,0,3,.81h0L129.83,58.1l0-.25v0L6.25,69.19v0a5.51,5.51,0,0,1-2.85-.77,2.08,2.08,0,0,1-1-1.74,2.29,2.29,0,0,1,.16-.82h0l.08-.2h0c.67-1.86,3.54-3.61,6.57-4l0-.12v.12L129.82,58.1Z"/><line class="cls-3" x1="104.24" y1="59.05" x2="20.71" y2="65.55"/><text class="cls-4" transform="translate(1.81 56.06) rotate(-2) scale(1 1.04)">Chives</text></g></g></svg>