<svg xmlns="http://www.w3.org/2000/svg" viewBox="0 0 521.88 737.14"><defs><style>.cls-1,.cls-2{fill:#b5b5b6;}.cls-1{stroke:#231815;stroke-miterlimit:10;stroke-width:20px;}.cls-3{fill:#231815;}</style></defs><title>资源 9</title><g id="图层_2" data-name="图层 2"><g id="图层_1-2" data-name="图层 1"><path class="cls-1" d="M509.26,350c8.27,103.8.27,217.8-72.73,299.8-56,62-144,86-223.57,74.58a329.85,329.85,0,0,1-55.28-15.52q-8.88-3.36-17.44-7.22C33.53,639.81,5.53,505.81,10.56,390.93q.22-11.3.58-22.56.55-17.46,1.3-34.9c1.44-20.22,2.71-41,4.26-61.93.56-7,1.16-14,2-21a401.74,401.74,0,0,1,16.88-78.93q3.14-9.66,6.85-19.12C57.46,117.66,81.49,87,110.5,61.64a228.78,228.78,0,0,1,18.09-14.11,301.75,301.75,0,0,1,42.61-20.9c7.45-3,15.05-5.64,22.77-8a244.32,244.32,0,0,1,49-8.13c8.31-.54,16.67-.67,25-.39a294.64,294.64,0,0,1,90,27q10.78,5.18,21.13,11.18c63.38,36.45,109.38,102.45,117,174.41.78,6.09,1.49,12.18,2.18,18.28,2.06,18.28,3.83,36.58,5.64,54.69q1,10.44,2.13,20.78.76,8.36,1.55,16.72C508.18,338.82,508.73,344.41,509.26,350Z"/><path class="cls-1" d="M10.05,311.74C111.3,377.89,192.61,410.79,276.1,407a294.54,294.54,0,0,0,42-5A412.59,412.59,0,0,0,449,351.77c19.46-11,38.35-23.1,57.14-35.25"/><path class="cls-1" d="M305.82,239.15c0,87.93-18.15,159.21-43,159.21-23.74,0-43-71.28-43-159.21a522.57,522.57,0,0,1,5.87-80.36c.93-5.89,2-11.55,3.08-16.91,1.18-4.76,2.19-10.09,3.41-15.41a96.61,96.61,0,0,1,4.59-15.39c5.73-17.27,26.73-21.27,40.73-10.27,9,8,16,19,17.3,30.94,1.33,4.95,2.37,10,3.23,14.86s1.53,9.57,2.15,13.85c.71,4.64,1.37,9.43,2,14.35A547,547,0,0,1,305.82,239.15Z"/><path class="cls-2" d="M263.34,19.21c-.73,21.93-.69,43.9-1,65.85"/><path class="cls-3" d="M250.84,19.21c-.71,21.94-.7,43.9-1,65.85-.23,16.1,24.77,16.1,25,0,.32-22,.31-43.91,1-65.85.53-16.09-24.47-16.07-25,0Z"/></g></g></svg>